<svg xmlns="http://www.w3.org/2000/svg" width="28" height="28" viewBox="0 0 28 28">
    <defs>
        <linearGradient id="prefix__a" x1="84.116%" x2="12.908%" y1="89.838%" y2="11.523%">
            <stop offset="0%" stop-color="#037145"/>
            <stop offset="100%" stop-color="#21B965"/>
        </linearGradient>
    </defs>
    <path fill="url(#prefix__a)" stroke="url(#prefix__a)" d="M13.018 26c-4.496 0-8.874-2.332-11.28-6.499C-1.844 13.292.29 5.324 6.498 1.74h0C12.704-1.845 20.669.29 24.253 6.5c1.736 3.007 2.197 6.511 1.299 9.866-.9 3.355-3.05 6.159-6.057 7.895-2.041 1.18-4.274 1.74-6.477 1.74zM6.923 2.478c-5.8 3.35-7.794 10.795-4.446 16.597 3.35 5.802 10.792 7.796 16.592 4.446 2.81-1.622 4.819-4.242 5.659-7.377.84-3.135.408-6.409-1.214-9.22-3.348-5.801-10.79-7.796-16.591-4.446h0zm11.856 6.417c-.247-.243-.644-.243-.891 0l-6.695 6.641-2.673-2.653c-.124-.124-.286-.188-.448-.188-.162 0-.324.064-.443.188-.248.243-.248.64 0 .883l3.121 3.1c.247.244.644.244.891 0l7.138-7.084c.124-.124.183-.281.183-.444 0-.157-.06-.32-.183-.443z" transform="translate(1 1)"/>
</svg>
