<svg id="Capa_1" enable-background="new 0 0 512.077 512.077" height="512" viewBox="0 0 512.077 512.077" width="512" xmlns="http://www.w3.org/2000/svg"><g><g><path d="m219.188 417.484c7.575 0 14.311-5.389 15.747-13.105 1.619-8.706-4.126-17.077-12.832-18.697-50.958-9.479-93.704-43.473-114.344-90.933-19.308-44.39-17.042-94.242 6.215-136.773 4.249-7.77 1.394-17.513-6.376-21.762-7.77-4.25-17.513-1.394-21.762 6.376-28.043 51.287-30.772 111.408-7.485 164.949 24.896 57.243 76.442 98.242 137.889 109.672.989.184 1.976.273 2.948.273z" fill="#fbac5b"/><g fill="#fddb8d"><path d="m68.23 268.173c11.956 0 20.82-1.893 21.791-2.108 3.235-.719 5.638-3.532 5.844-6.839.027-.442.644-10.918-1.663-23.914-3.154-17.771-10.349-31.89-20.81-40.827-10.46-8.938-25.527-13.844-43.574-14.186-.703-.013-1.399-.019-2.083-.019-11.963 0-20.827 1.892-21.799 2.108-3.234.719-5.637 3.532-5.843 6.839-.027.442-.644 10.918 1.662 23.915 3.153 17.771 10.35 31.889 20.811 40.828 10.459 8.937 25.527 13.843 43.573 14.185.709.012 1.406.018 2.091.018z"/><path d="m170.917 466.781c14.062 0 26.427-3.335 35.758-9.647 11.396-7.708 20.13-20.93 25.257-38.236 3.678-12.412 4.279-22.475 4.335-23.582.166-3.305-1.907-6.369-5.041-7.447-1.044-.359-10.59-3.545-23.495-4.753-3.102-.291-6.177-.439-9.14-.439-14.058 0-26.42 3.336-35.751 9.647-11.397 7.709-20.131 20.931-25.258 38.237-3.678 12.412-4.279 22.475-4.336 23.582-.166 3.305 1.907 6.369 5.041 7.447 1.044.359 10.589 3.544 23.495 4.753 3.1.291 6.174.438 9.135.438z"/><path d="m84.495 380.628c10.832 0 22.386-3.106 34.339-9.23 11.532-5.909 19.219-12.412 20.057-13.134 2.509-2.161 3.296-5.776 1.913-8.788-.184-.402-4.591-9.919-12.773-20.285-11.182-14.168-24.197-23.206-37.641-26.136-3.429-.748-7.051-1.126-10.763-1.126-10.833 0-22.386 3.106-34.34 9.231-11.531 5.909-19.219 12.412-20.057 13.134-2.509 2.161-3.296 5.777-1.912 8.789.184.402 4.59 9.918 12.773 20.285 11.182 14.168 24.197 23.205 37.641 26.135.523.114 1.05.219 1.583.316l.009.001c2.951.536 6.029.808 9.171.808z"/><path d="m109.396 157.767c2.688 0 5.181-1.454 6.508-3.794.217-.384 5.362-9.534 8.982-22.225 4.951-17.356 4.668-33.2-.819-45.818-5.488-12.617-16.885-23.628-32.957-31.842-11.76-6.01-21.95-8.481-22.378-8.583-.578-.138-1.165-.208-1.75-.208-2.685 0-5.177 1.454-6.503 3.795-.218.385-5.363 9.534-8.983 22.226-4.951 17.357-4.667 33.201.819 45.818 5.488 12.617 16.885 23.627 32.956 31.842 11.76 6.009 21.951 8.482 22.38 8.583.574.136 1.161.206 1.745.206z"/></g></g><g><path d="m292.889 417.484c-7.575 0-14.311-5.389-15.747-13.105-1.619-8.706 4.126-17.077 12.832-18.697 50.958-9.479 93.704-43.473 114.344-90.933 19.308-44.39 17.042-94.242-6.214-136.773-4.249-7.77-1.394-17.513 6.376-21.762 7.77-4.25 17.513-1.394 21.762 6.376 28.043 51.287 30.772 111.408 7.485 164.949-24.896 57.243-76.442 98.242-137.888 109.672-.991.184-1.978.273-2.95.273z" fill="#fd8f32"/><g fill="#fbac5b"><path d="m443.847 268.173c-11.956 0-20.82-1.893-21.791-2.108-3.235-.719-5.638-3.532-5.844-6.839-.027-.442-.644-10.918 1.663-23.914 3.154-17.771 10.348-31.89 20.81-40.827 10.46-8.938 25.527-13.844 43.574-14.186.703-.013 1.399-.019 2.083-.019 11.962 0 20.827 1.892 21.798 2.108 3.234.719 5.637 3.532 5.843 6.839.027.442.644 10.918-1.662 23.915-3.153 17.771-10.35 31.889-20.811 40.828-10.459 8.937-25.527 13.843-43.573 14.185-.708.012-1.404.018-2.09.018z"/><path d="m341.16 466.781c-14.062 0-26.427-3.335-35.758-9.647-11.396-7.708-20.13-20.93-25.257-38.236-3.678-12.412-4.279-22.475-4.336-23.582-.166-3.305 1.907-6.369 5.041-7.447 1.044-.359 10.59-3.545 23.495-4.753 3.102-.291 6.177-.439 9.14-.439 14.058 0 26.42 3.336 35.751 9.647 11.397 7.709 20.131 20.931 25.258 38.237 3.678 12.412 4.279 22.475 4.335 23.582.166 3.305-1.907 6.369-5.041 7.447-1.044.359-10.589 3.544-23.495 4.753-3.098.291-6.172.438-9.133.438z"/><path d="m427.582 380.628c-10.832 0-22.386-3.106-34.339-9.23-11.532-5.909-19.219-12.412-20.057-13.134-2.508-2.161-3.296-5.776-1.912-8.788.184-.402 4.591-9.919 12.773-20.285 11.182-14.168 24.197-23.206 37.641-26.136 3.429-.748 7.051-1.126 10.763-1.126 10.833 0 22.386 3.106 34.34 9.231 11.531 5.909 19.219 12.412 20.057 13.134 2.509 2.161 3.296 5.777 1.912 8.789-.184.402-4.59 9.918-12.773 20.285-11.182 14.168-24.197 23.205-37.641 26.135-.523.114-1.05.219-1.583.316l-.009.001c-2.952.536-6.029.808-9.172.808z"/><path d="m402.681 157.767c-2.688 0-5.181-1.454-6.508-3.794-.217-.384-5.362-9.534-8.982-22.225-4.951-17.356-4.667-33.2.82-45.818 5.488-12.617 16.885-23.628 32.957-31.842 11.76-6.01 21.95-8.481 22.378-8.583.578-.138 1.165-.208 1.75-.208 2.685 0 5.177 1.454 6.503 3.795.218.385 5.363 9.534 8.983 22.226 4.951 17.357 4.668 33.201-.819 45.818-5.488 12.617-16.885 23.627-32.956 31.842-11.76 6.009-21.951 8.482-22.38 8.583-.575.136-1.162.206-1.746.206z"/></g></g><g><g fill="#fd8f32"><path d="m256.237 189.017c-8.284 0-15-6.716-15-15v-16.528c0-8.284 6.716-15 15-15s15 6.716 15 15v16.528c0 8.284-6.716 15-15 15z"/><path d="m156.875 213.972c-7.085 0-13.388-5.042-14.73-12.26l-3.236-17.401c-1.515-8.145 3.86-15.975 12.004-17.49 8.148-1.513 15.975 3.86 17.49 12.004l3.236 17.401c1.515 8.145-3.86 15.975-12.004 17.49-.927.173-1.85.256-2.76.256z"/><path d="m355.529 214.447c-.91 0-1.833-.083-2.76-.255-8.145-1.515-13.519-9.345-12.004-17.49l3.236-17.401c1.515-8.145 9.344-13.515 17.49-12.004 8.145 1.515 13.519 9.345 12.004 17.49l-3.236 17.401c-1.343 7.217-7.645 12.259-14.73 12.259z"/></g><g><g><path d="m336.52 316.46h-160.566c-7.227 0-13.426-5.152-14.747-12.257l-19.063-102.49c-1.12-6.02 1.532-12.115 6.698-15.4 5.168-3.285 11.812-3.099 16.788.466l50.977 36.541 26.043-55.66c2.468-5.274 7.764-8.643 13.586-8.643s11.119 3.369 13.586 8.643l26.042 55.66 50.977-36.541c4.977-3.567 11.621-3.752 16.788-.466 5.167 3.285 7.818 9.381 6.698 15.4l-19.063 102.49c-1.318 7.104-7.518 12.257-14.744 12.257z" fill="#fddb8d"/><path d="m363.631 186.312c-5.167-3.286-11.811-3.101-16.788.466l-50.977 36.541-26.042-55.66c-2.468-5.274-7.764-8.643-13.586-8.643v157.444h80.283c7.227 0 13.426-5.152 14.747-12.257l19.063-102.49c1.118-6.02-1.533-12.116-6.7-15.401z" fill="#fbac5b"/></g><g><path d="m346.52 316.46h-180.566c-8.284 0-15-6.716-15-15s6.716-15 15-15h180.566c8.284 0 15 6.716 15 15s-6.716 15-15 15z" fill="#fbac5b"/><path d="m346.52 286.46h-90.283v30h90.283c8.284 0 15-6.716 15-15s-6.716-15-15-15z" fill="#fd8f32"/></g></g></g></g></svg>