<svg xmlns="http://www.w3.org/2000/svg" width="38" height="30" viewBox="0 0 38 30">
    <path fill="#FFF" d="M35.15 11.25H28.1c.753 1.734.423 3.82-1.01 5.234L19 24.468v2.72C19 28.74 20.276 30 21.85 30h13.3c1.574 0 2.85-1.26 2.85-2.813V14.063c0-1.553-1.276-2.812-2.85-2.812zM28.5 22.031c-.787 0-1.425-.63-1.425-1.406 0-.777.638-1.406 1.425-1.406s1.425.629 1.425 1.406c0 .776-.638 1.406-1.425 1.406zm-2.753-10.94L15.36.843c-1.137-1.123-2.982-1.123-4.12 0L.853 11.092c-1.137 1.122-1.137 2.943 0 4.066l10.387 10.25c1.137 1.123 2.982 1.123 4.12 0l10.387-10.25c1.137-1.123 1.137-2.944 0-4.066zM5.7 14.532c-.787 0-1.425-.63-1.425-1.406 0-.777.638-1.406 1.425-1.406s1.425.629 1.425 1.406c0 .776-.638 1.406-1.425 1.406zm7.6 7.5c-.787 0-1.425-.63-1.425-1.406 0-.777.638-1.406 1.425-1.406s1.425.629 1.425 1.406c0 .776-.638 1.406-1.425 1.406zm0-7.5c-.787 0-1.425-.63-1.425-1.406 0-.777.638-1.406 1.425-1.406s1.425.629 1.425 1.406c0 .776-.638 1.406-1.425 1.406zm0-7.5c-.787 0-1.425-.63-1.425-1.406 0-.777.638-1.406 1.425-1.406s1.425.629 1.425 1.406c0 .776-.638 1.406-1.425 1.406zm7.6 7.5c-.787 0-1.425-.63-1.425-1.406 0-.777.638-1.406 1.425-1.406s1.425.629 1.425 1.406c0 .776-.638 1.406-1.425 1.406z"/>
</svg>
