<svg xmlns="http://www.w3.org/2000/svg" width="25" height="25" viewBox="0 0 25 25">
    <path fill="#111" d="M12.5 25C19.405 25 25 19.405 25 12.5S19.405 0 12.5 0 0 5.595 0 12.5 5.595 25 12.5 25zm-.7-19.358V4.601c0-.57.433-1.03.973-1.03h.65c.54 0 .974.46.974 1.03v1.054c.91.05 1.789.378 2.522.955.328.254.363.762.07 1.06l-.956.961c-.223.23-.557.236-.82.062-.317-.21-.67-.316-1.045-.316h-2.28c-.529 0-.957.508-.957 1.134 0 .509.293.961.71 1.092l3.653 1.16c1.508.477 2.563 2.008 2.563 3.726 0 2.108-1.548 3.813-3.466 3.869v1.041c0 .57-.434 1.03-.973 1.03h-.651c-.54 0-.974-.46-.974-1.03v-1.054c-.909-.05-1.788-.378-2.521-.955-.329-.254-.364-.762-.07-1.06l.955-.961c.223-.23.557-.236.821-.062.317.21.669.316 1.044.316h2.281c.528 0 .956-.508.956-1.134 0-.509-.293-.961-.71-1.092l-3.653-1.16C9.39 12.76 8.333 11.23 8.333 9.512 8.34 7.403 9.882 5.698 11.8 5.642z"/>
</svg>
