<svg xmlns="http://www.w3.org/2000/svg" width="44" height="44" viewBox="0 0 44 44">
    <path fill="#FFF" d="M22 0C9.85 0 0 9.85 0 22s9.85 22 22 22 22-9.85 22-22S34.15 0 22 0zM32.96 5.713l-1.402 2.072c-1.866-1.256-3.992-2.155-6.28-2.598l.49-2.452c2.579.498 5.016 1.508 7.192 2.978zm-9.88 26.016v2.554H21v-2.541c-1.484-.163-2.877-.732-3.924-1.706-1.047-.974-1.526-2.407-1.492-4.295l.053-.066h3.67c0 1.188.264 1.976.792 2.474.528.497 1.2.747 2.015.747.78 0 1.38-.208 1.796-.625.416-.416.624-.976.624-1.68 0-.695-.2-1.261-.598-1.699-.4-.438-1.084-.845-2.054-1.223-1.906-.696-3.32-1.47-4.243-2.324-.923-.854-1.384-2.058-1.384-3.612 0-1.442.426-2.625 1.349-3.547.923-.923 2.209-1.466 3.693-1.63v-2.76h2.077v2.786c1.485.223 2.718.854 3.58 1.893.863 1.039 1.296 2.37 1.279 4.028l-.029.048h-3.67c0-1.038-.208-1.778-.624-2.327-.417-.55-.985-.817-1.706-.817-.739 0-1.288.216-1.648.641-.36.425-.54.992-.54 1.696 0 .669.19 1.213.572 1.63.382.416 1.084.826 2.105 1.23 1.897.746 3.303 1.545 4.217 2.395.914.85 1.372 2.039 1.372 3.566 0 1.494-.5 2.687-1.418 3.58-.918.893-2.154 1.42-3.786 1.584zM18.232 2.735l.474 2.456c-2.288.446-4.414 1.346-6.278 2.604l-1.386-2.082c2.175-1.47 4.612-2.48 7.19-2.978zM5.713 11.04l2.072 1.402c-1.256 1.866-2.154 3.992-2.598 6.28l-2.452-.491c.498-2.578 1.508-5.015 2.978-7.19zm0 21.917c-1.47-2.175-2.48-4.612-2.978-7.19l2.456-.474c.446 2.288 1.346 4.414 2.604 6.278l-2.082 1.386zm5.328 5.329l1.402-2.072c1.866 1.256 3.992 2.155 6.281 2.598l-.492 2.453c-2.578-.5-5.015-1.509-7.19-2.98zm14.727 2.979l-.474-2.457c2.288-.445 4.414-1.346 6.278-2.604l1.387 2.082c-2.176 1.47-4.613 2.48-7.191 2.979zm12.52-8.308l-2.073-1.401c1.257-1.866 2.155-3.992 2.598-6.281l2.452.492c-.498 2.578-1.508 5.015-2.978 7.19zm.521-14.252c-.445-2.288-1.346-4.414-2.604-6.278l2.082-1.387c1.47 2.176 2.48 4.613 2.978 7.191l-2.456.474z"/>
</svg>
