<svg xmlns="http://www.w3.org/2000/svg" width="44" height="44" viewBox="0 0 44 44">
    <path fill="#FFF" d="M39.404 5.752c1.823-.847 3.909.483 3.909 2.493v20.892c0 .904-.444 1.753-1.19 2.265-3.08 2.11-6.388 3.511-10.528 3.511-5.79 0-9.593-2.989-14.198-2.989-4.37 0-7.402.864-9.834 1.901v8.113C7.563 43.077 6.639 44 5.5 44H4.125c-1.14 0-2.062-.923-2.062-2.062V8.76C.816 7.891 0 6.448 0 4.813 0 2.088 2.264-.107 5.013.004c2.447.1 4.45 2.06 4.602 4.504.045.717-.07 1.401-.308 2.025C11.09 5.877 13.01 5.5 15.155 5.5c5.79 0 9.593 2.99 14.198 2.99 3.48 0 7.1-1.368 10.05-2.738zM7.563 11.57v6.058c2.492-.917 4.398-1.533 6.325-1.797V9.68c-2.02.186-3.476.84-6.325 1.889zm18.975.79c-2.27-.402-4.288-1.202-6.325-1.834v5.794c2.077.576 4.087 1.413 6.325 1.917V12.36zm-12.65 3.47v6.02c2.818-.256 4.632-.055 6.325.326V16.32c-2.17-.605-4.004-.81-6.325-.49zm6.325 12.224c2.263.4 4.273 1.196 6.325 1.834v-5.794c-2.087-.58-4.086-1.413-6.325-1.918v5.878zm-12.65 1.345c2.03-.72 4.106-1.189 6.325-1.423V21.85c-2.244.202-4.07.69-6.325 1.492v6.057zm31.625-19.043c-1.83.76-4.004 1.516-6.325 1.93v6.18c2.346-.374 4.299-1.211 6.325-2.053v-6.057zm0 18.043v-6.058c-1.907 1.22-4.193 1.943-6.325 2.236v6.152c2.154-.205 4.167-.949 6.325-2.33zm-12.65-10.162v5.857c2.205.614 4.006.803 6.325.483v-6.11c-2.235.36-4.292.23-6.325-.23z"/>
</svg>
