<?xml version="1.0" encoding="utf-8"?>
<!-- Generator: Adobe Illustrator 24.0.1, SVG Export Plug-In . SVG Version: 6.00 Build 0)  -->
<svg version="1.1" id="Capa_1" xmlns="http://www.w3.org/2000/svg" xmlns:xlink="http://www.w3.org/1999/xlink" x="0px" y="0px"
	 viewBox="0 0 25.9 25.9" style="enable-background:new 0 0 25.9 25.9;" xml:space="preserve">
<style type="text/css">
	.st0{fill:#FFFFFF;}
</style>
<g>
	<path class="st0" d="M23.2,4.5l-4.7-1.2v2.1l4.2,1.1c0.5,0.1,0.9,0.7,0.7,1.2l-4.1,15.5c-0.1,0.5-0.7,0.9-1.2,0.7L14.8,23
		c-0.1,0-0.2,0-0.4,0H7.4c0.2,0.1,0.3,0.1,0.5,0.2l9.7,2.6c1.6,0.4,3.2-0.5,3.7-2.1l4.1-15.5C25.7,6.5,24.8,4.9,23.2,4.5z"/>
	<path class="st0" d="M14.5,0h-11c-1.7,0-3,1.3-3,3v16c0,1.7,1.3,3,3,3h11c1.7,0,3-1.3,3-3V3C17.5,1.3,16.1,0,14.5,0z M15.5,19
		c0,0.6-0.4,1-1,1h-11c-0.6,0-1-0.4-1-1V3c0-0.6,0.4-1,1-1h11c0.6,0,1,0.4,1,1V19z M13.3,11.4c0,1.4-0.9,2.3-2.3,2.3
		c-0.7,0-1.4-0.5-1.8-0.8c0,0,0.4,1.7,1,3c0.1,0.2-2.9,0.2-2.8,0c0.7-1.4,1-3,1-3c-0.4,0.4-1.2,0.9-1.8,0.9c-1.3,0-2.3-0.9-2.3-2.3
		c0-2.3,4.4-5.4,4.4-5.4h0C9,6.1,13.3,9.1,13.3,11.4z M13.4,3.1C13.4,3.1,13.4,3.1,13.4,3.1C13.3,3,13.3,3,13.2,3h-0.6
		c-0.1,0-0.1,0-0.1,0c0,0,0,0.1-0.1,0.1l-0.9,2.8c0,0.1,0,0.1,0,0.1s0,0,0.1,0h0.5c0,0,0.1,0,0.1,0c0,0,0,0,0.1-0.1l0.2-0.6h0.9
		l0.1,0.5c0,0,0,0.1,0,0.1c0,0,0.1,0,0.1,0h0.6c0,0,0.1,0,0.1,0s0,0,0-0.1L13.4,3.1z M12.6,4.8l0.1-0.5l0.1-0.5h0l0.1,0.6l0.1,0.5
		H12.6z M5.7,16c-0.1,0-0.1,0-0.1,0c0,0,0,0.1,0,0.1l-0.1,0.5H4.5l-0.2-0.6c0,0,0-0.1-0.1-0.1c0,0-0.1,0-0.1,0H3.7c0,0-0.1,0-0.1,0
		s0,0,0,0.1l0.9,2.8c0,0,0,0.1,0.1,0.1c0,0,0.1,0,0.1,0h0.6c0.1,0,0.1,0,0.1,0c0,0,0-0.1,0.1-0.1l0.9-2.8c0,0,0-0.1,0-0.1s0,0-0.1,0
		H5.7z M5.1,17.7l-0.1,0.6h0l-0.1-0.5l-0.1-0.5h0.6L5.1,17.7z"/>
	<path class="st0" d="M21.3,7.3c0,0,0-0.1,0-0.1c0,0-0.1-0.1-0.1-0.1l-0.5-0.1c-0.1,0-0.1,0-0.1,0c0,0-0.1,0-0.1,0.1l-1.6,2.4
		c0,0,0,0.1,0,0.1c0,0,0,0,0.1,0l0.5,0.1c0,0,0.1,0,0.1,0c0,0,0.1,0,0.1-0.1l0.3-0.5l0.9,0.2l0,0.6c0,0,0,0.1,0,0.1c0,0,0,0,0.1,0.1
		l0.5,0.1c0,0,0.1,0,0.1,0c0,0,0,0,0-0.1L21.3,7.3z M20.2,8.6l0.3-0.5l0.3-0.5l0,0l0,0.6l0,0.5L20.2,8.6z"/>
</g>
</svg>
