<svg xmlns="http://www.w3.org/2000/svg" width="25" height="20" viewBox="0 0 25 20">
    <path fill="#BFBFBF" d="M24.757 17.895l-2.148-1.66c.601-.055 1.14-.535 1.14-1.215V4.98c0-.996-1.136-1.578-1.968-1.008l-4.282 2.953v5.36l-1.25-.965V4.367c0-1.032-.836-1.868-1.867-1.868H4.839L1.776.132c-.273-.211-.664-.164-.879.11l-.765.984c-.211.273-.164.664.109.875l1.426 1.101 14.582 11.275 6.973 5.391c.274.211.664.164.879-.11l.766-.987c.215-.27.164-.665-.11-.876zM1.25 15.633c0 1.032.836 1.868 1.867 1.868h11.266c.438 0 .836-.156 1.156-.41L1.248 6.043v9.59z"/>
</svg>
