<svg xmlns="http://www.w3.org/2000/svg" width="53" height="44" viewBox="0 0 53 44">
    <g fill="#FFF">
        <path d="M26.647 8.067c1.988-3.447 4.711-5.72 8.392-6.82 7.73-2.274 15.753 2.42 17.52 10.266 1.766 7.847-3.387 15.474-11.337 16.72-.81.147-.736.514-.736 1.1.147 7.774-5.889 14.154-13.544 14.3-8.024.147-14.428-6.233-14.28-14.226 0-.807-.148-1.027-1.031-1.247C4.49 26.767-.442 19.947.515 12.98 1.545 5.427 7.95.147 15.385.733c4.49.367 8.097 2.494 10.6 6.234.22.366.441.66.662 1.1zm-.147 33.66c6.625 0 12.072-5.28 12.072-11.88 0-6.6-5.3-12.027-11.925-12.1-6.698-.074-12.146 5.28-12.146 11.953 0 6.6 5.374 12.027 11.999 12.027zM2.282 14.52c0 5.793 4.122 10.78 9.717 11.807.662.146 1.03.073 1.251-.734 1.693-5.5 6.478-9.24 12.22-9.753.662-.073.81-.22.883-.88.22-6.673-5.08-12.393-11.704-12.467C7.876 2.42 2.282 7.773 2.282 14.52zm25.985-.073c0 1.466 0 1.393 1.325 1.76 5.079 1.246 8.539 4.326 10.158 9.24.368 1.026.81 1.1 1.62.88 5.52-1.174 9.569-6.014 9.643-11.66.073-5.72-3.902-10.634-9.496-11.807-5.521-1.247-11.19 1.613-13.545 6.747-.22.513-.368 1.026-.147 1.613.294 1.027.442 2.127.442 3.227z"/>
        <path d="M23.408 24.273c2.577 0 4.711 2.2 4.638 4.767-.074 2.567-2.209 4.62-4.785 4.62-2.576-.073-4.637-2.127-4.564-4.693 0-2.64 2.135-4.694 4.711-4.694zm-.589 3.96c-.073-.513.148-.806.737-.733.368.073.736-.073 1.104 0 .81.147.883-.44.883-.953.074-.734-.515-.294-.81-.367-.22-.073-.515 0-.736 0-2.208 0-2.208 0-2.723 2.127-.295 1.026-.148 1.173.957 1.246.22 0 .368-.146.588-.22.295-.146.59-.22.884.074.294.293.22.586.073.88-.147.366-.368.586-.736.66-.368.073-.589-.074-.81-.44-.367-.587-.956-.22-1.398-.074-.368.147 0 .587.147.88.368.734 1.472.954 2.65.66 1.252-.366 2.061-1.466 1.767-2.64-.295-1.1-1.03-1.466-2.577-1.1zM11.042 4.033c1.398.22 1.84 1.027 1.325 2.42-.736 1.907-2.135 3.154-3.902 3.96-.589.294-1.178.44-1.84.44-1.104 0-1.546-.513-1.546-1.686 1.546 1.1 3.24.806 5.006-.807 1.472-1.393 1.84-2.86.957-4.327zM47.185 21.267c-1.252.513-1.914.293-2.356-.66-.957-2.054.368-6.307 2.43-7.407.662-.367 1.324-.44 1.913.147.221.22.221.366-.147.44-2.65.44-4.417 3.96-3.239 6.38.22.513.589.953 1.399 1.1z"/>
    </g>
</svg>
