<svg xmlns="http://www.w3.org/2000/svg" width="15" height="15" viewBox="0 0 15 15">
    <path fill="#CACACA" d="M15 7.5c0 4.143-3.358 7.5-7.5 7.5C3.358 15 0 11.643 0 7.5 0 3.36 3.358 0 7.5 0 11.642 0 15 3.36 15 7.5zm-7.158-5c-1.593 0-2.61.71-3.408 1.974-.103.164-.068.385.08.504l1.014.815c.153.122.37.093.488-.066.522-.702.88-1.109 1.675-1.109.598 0 1.337.408 1.337 1.021 0 .464-.362.702-.952 1.052-.688.409-1.598.917-1.598 2.189v.123c0 .206.157.372.351.372h1.638c.193 0 .35-.166.35-.372v-.04c0-.882 2.433-.919 2.433-3.304 0-1.796-1.76-3.159-3.408-3.159zM7.5 10c-.69 0-1.25.56-1.25 1.25s.56 1.25 1.25 1.25 1.25-.56 1.25-1.25S8.19 10 7.5 10z"/>
</svg>
