<svg xmlns="http://www.w3.org/2000/svg" width="36" height="36" viewBox="0 0 36 36">
    <path fill="#FFF" d="M36 17.966c.018 9.917-8.07 18.027-17.987 18.034-4.283.003-8.218-1.49-11.31-3.985-.804-.65-.864-1.854-.133-2.585l.818-.818c.625-.624 1.622-.693 2.314-.144 2.278 1.808 5.161 2.887 8.298 2.887 7.382 0 13.355-5.974 13.355-13.355 0-7.382-5.974-13.355-13.355-13.355-3.543 0-6.76 1.377-9.15 3.624l3.684 3.684c.731.732.213 1.983-.821 1.983H1.16C.52 13.936 0 13.416 0 12.774V2.223C0 1.188 1.25.67 1.982 1.402l3.584 3.583C8.797 1.897 13.177 0 18 0c9.93 0 17.982 8.04 18 17.966zm-12.389 6.346l.71-.937c.587-.777.451-1.896-.304-2.5l-2.939-2.35v-7.744c0-.984-.776-1.781-1.733-1.781H18.19c-.957 0-1.733.797-1.733 1.781V20.85l4.723 3.776c.755.604 1.844.464 2.431-.313z"/>
</svg>
