<svg xmlns="http://www.w3.org/2000/svg" width="44" height="44" viewBox="0 0 44 44">
    <path fill="#FFF" d="M43.414 1.641c-.112-.524-.525-.936-1.049-1.048C39.597 0 37.431 0 35.274 0c-8.87 0-14.191 4.744-18.162 11H8.155c-1.564 0-2.991.885-3.687 2.277L.22 21.767c-.687 1.375.31 2.982 1.848 2.982h8.175c-.507 1.1-1.023 2.191-1.547 3.24-.267.532-.164 1.168.257 1.59l5.467 5.465c.421.42 1.057.524 1.59.257 1.049-.524 2.14-1.03 3.24-1.538v8.173c0 1.53 1.617 2.526 2.983 1.847l8.484-4.245c1.401-.696 2.278-2.131 2.278-3.687V26.88c6.24-3.979 11.002-9.315 11.002-18.14.009-2.166.009-4.332-.584-7.099zM34.375 13.75c-2.277 0-4.125-1.848-4.125-4.125S32.098 5.5 34.375 5.5 38.5 7.348 38.5 9.625s-1.848 4.125-4.125 4.125z"/>
</svg>
