<?xml version="1.0" encoding="utf-8"?>
<!-- Generator: Adobe Illustrator 24.0.1, SVG Export Plug-In . SVG Version: 6.00 Build 0)  -->
<svg version="1.1" id="Layer_1" xmlns="http://www.w3.org/2000/svg" xmlns:xlink="http://www.w3.org/1999/xlink" x="0px" y="0px"
	 viewBox="0 0 496 496" style="enable-background:new 0 0 496 496;" xml:space="preserve">
<style type="text/css">
	.st0{fill:#F4D11F;}
</style>
<path class="st0" d="M245.3,0c-77.8,0-141,63.2-141,141v26.4c0,72.5,56.1,141,146.3,141c77.7,0,141-63.2,141-141V141
	C391.7,68.5,335.6,0,245.3,0L245.3,0z M359.7,167.4c0,60.1-48.9,109-109,109h-5.3c-60.1,0-109-48.9-109-109v-20.8
	c30.6,2.8,56.8-5.6,75.9-20.9c46,24.8,98.3,32.5,147.5,23.8V167.4z M209.4,204.7c-8.8,0-16-7.2-16-16v-5.1c0-8.8,7.2-16,16-16
	s16,7.2,16,16v5.1C225.4,197.5,218.2,204.7,209.4,204.7z M286.6,204.7c-8.8,0-16-7.2-16-16v-5.1c0-8.8,7.2-16,16-16s16,7.2,16,16
	v5.1C302.6,197.5,295.5,204.7,286.6,204.7z M220.3,328.9c1.6-3.5,5.2-5.6,9-5.6h37.5c3.8,0,7.4,2.2,9,5.7
	c9.3,19.9-4.8,43.4-27.6,43.6C225.6,372.6,210.8,349.1,220.3,328.9L220.3,328.9z M398.8,443.9V480c0,8.8-7.2,16-16,16H113.2
	c-8.8,0-16-7.2-16-16v-36.1c0-50.2,30.8-93.4,74.6-111.5c6.5-2.7,13.6,2.2,13.6,9.3c-0.1,34.6,28,62.8,62.6,62.8
	c34.6,0,62.7-28.2,62.6-62.8c0-7.1,7.1-12,13.6-9.3C368,350.6,398.8,393.7,398.8,443.9z"/>
</svg>
