<?xml version="1.0" encoding="utf-8"?>
<!-- Generator: Adobe Illustrator 24.0.1, SVG Export Plug-In . SVG Version: 6.00 Build 0)  -->
<svg version="1.1" id="Capa_1" xmlns="http://www.w3.org/2000/svg" xmlns:xlink="http://www.w3.org/1999/xlink" x="0px" y="0px"
	 viewBox="0 0 568.8 568.8" style="enable-background:new 0 0 568.8 568.8;" xml:space="preserve">
<style type="text/css">
	.st0{fill:#FFFFFF;}
</style>
<g>
	<g>
		<path class="st0" d="M18.8,334.1h177.4v16.5H153c0,0,0,0,0,0c4.4,8.1,22.3,15.4,33.3,18.3h91.5c2.2-3.2,4.8-6.3,7.6-9.2
			c3.6-3.6,7.5-6.8,11.5-9.2c5.4-3.2,10.9-5.2,15.9-5.2c1.9,0,3.7,0.3,5.4,0.8c1.2,0.3,2.6,0.5,4.2,0.5c11.2,0,27.9-8.4,33.3-11.7
			l0.2-0.1l0.2-0.1c0.4-0.2,0.8-0.4,1.2-0.6c4.5-2.4,10.1-5.8,15.2-9.8c6.3-4.9,11.8-10.4,13.2-15.2c0.2-0.5,0.4-1,0.6-1.5H44
			c-9.4,0-17-7-17-15.6V60.6C27.1,52,34.7,45,44,45h480.7c9.4,0,17,7,17,15.6v231.3c0,8.6-7.6,15.6-17,15.6H471
			c8.3,7.1,17.5,16.1,26.4,26.6H550c10.4,0,18.8-8.4,18.8-18.8V37.2c0-10.4-8.4-18.8-18.8-18.8H18.8C8.4,18.4,0,26.8,0,37.2v278.1
			C0,325.7,8.4,334.1,18.8,334.1z"/>
		<path class="st0" d="M308.8,502.9c10.7,15.8,19.1,21.8,25.9,21.8c10.7,0,17.5-14.5,23-28.2c9-22.4,8-37.1,53-61.8
			c23.6-12.9,38-16.7,49.9-16.7c10.8,0,19.4,3.1,30.8,5.3c6.6,1.2,13.4,2.3,19.5,2.3c15.9,0,26.5-7.6,12.3-40.1
			c-8.5-19.6-21.1-37.1-33.9-51.4c-9.8-10.9-19.6-19.9-27.9-26.6c-5.8-4.7-10.9-8.2-14.6-10.4c-4.6-2.7-11-3.9-17.7-3.9
			c-14.3,0-30.3,5.5-35.8,14.3c-0.7,1-1.2,2.1-1.5,3.3c-2.3,7.9-11.2,15.6-19.1,21.1c-1.1,0.8-2.2,1.5-3.3,2.2
			c-5.8,3.8-10.4,6.1-10.4,6.1s-11.4,6.8-23.6,10.4c-4.4,1.3-8.8,2.2-12.9,2.2c-2.1,0-4.1-0.2-5.9-0.8c-1.2-0.3-2.4-0.5-3.7-0.5
			c-5.8,0-12.4,3.3-18.5,8.3c-3.2,2.7-6.3,5.8-9,9.2c-5.4,6.7-9.2,14.3-9.8,21.1c4.2,4.8,7.4,10.1,8.7,15.2
			c2.8,10.5,5.4,31.8,4.2,56.5C293.5,475.7,300.1,489.9,308.8,502.9z M438.6,334.1c0.7-0.7,1.5-1.4,2.4-1.9
			c4.1-2.3,9.1-1.3,12.2,1.9c0.6,0.6,1.2,1.3,1.7,2.2c2.7,4.9,0.9,11.1-4,13.8c-4.9,2.7-11.1,0.9-13.8-4
			C434.7,342,435.6,337.2,438.6,334.1z M426.7,365.8c4.9-2.7,11.1-0.9,13.8,4c2.7,4.9,0.9,11.1-4,13.8c-4.9,2.7-11.1,0.9-13.8-4
			S421.7,368.5,426.7,365.8z M309.1,419.6l13-7.1l-7.1-13c-1-1.8-0.3-4.2,1.5-5.2l7.7-4.2c1.9-1,4.2-0.3,5.2,1.5l7.1,13l13-7.1
			c1.9-1,4.2-0.3,5.2,1.5l4.2,7.7c1,1.8,0.3,4.2-1.5,5.2l-13,7.1l7.1,13c1,1.8,0.3,4.2-1.5,5.2l-7.7,4.2c-1.9,1-4.2,0.3-5.2-1.5
			l-7.1-13l-13,7.1c-1.9,1-4.2,0.3-5.2-1.5l-4.2-7.7C306.6,422.9,307.3,420.6,309.1,419.6z"/>
		<path class="st0" d="M275.7,400.4c-0.9-1.6-2-3.2-3.3-4.8c-0.9-1.2-2-2.3-3-3.4c-8.9-9.2-22.1-16.4-32.2-16.4
			c-2.7,0-5.2,0.5-7.4,1.7c-3.8,2.1-8.9,2.9-14.2,2.9c-14,0-29.7-5.2-29.7-5.2s-8.5-2.2-17.7-6.2c-8.2-3.7-17-8.8-20.6-15.4
			c-0.3-0.6-0.7-1.1-1.1-1.6c-4.6-6-15-8.9-25.9-8.9c-11.3,0-23.1,3.1-29.6,9.1c-13.3,12.2-46.2,54.5-55.6,102.7
			c-5.7,29,1.7,37.4,13.3,37.4c7.6,0,17.1-3.6,25.9-7.4c14.6-6.2,23.7-13.1,42.1-13.1c9.7,0,22,1.9,39,6.9
			c49.3,14.4,51.4,29,65.1,48.9c7.7,11.2,16.6,22.9,26.1,22.9c7.4,0,15.2-7.1,23.1-27.1c7.9-19.9,11.3-41.4,12.4-60.6
			c0.2-3,0.3-5.9,0.3-8.8c0.1-4,0-7.8-0.1-11.5c-0.5-15.7-2.3-28.6-4.2-35.6C277.9,404.7,276.9,402.5,275.7,400.4z M141.3,413.7
			l-2.4,8.4c-0.6,2-2.7,3.2-4.7,2.6l-14.2-4.2l-4.2,14.2c-0.6,2-2.7,3.2-4.7,2.6l-8.4-2.4c-2-0.6-3.2-2.7-2.6-4.7l4.2-14.2
			l-14.2-4.2c-2-0.6-3.2-2.7-2.6-4.7l2.4-8.4c0.6-2,2.7-3.2,4.7-2.6l14.2,4.2l4.2-14.2c0.6-2,2.7-3.2,4.7-2.6l8.4,2.4
			c2,0.6,3.2,2.7,2.6,4.7l-4.2,14.2l14.2,4.2C140.7,409.5,141.9,411.6,141.3,413.7z M222.6,453.7c-1.6,5.4-7.2,8.5-12.6,6.9
			c-5.4-1.6-8.5-7.2-6.9-12.6s7.2-8.5,12.6-6.9C221,442.6,224.2,448.3,222.6,453.7z M256.4,440.1c-1.6,5.4-7.2,8.5-12.6,6.9
			c-5.4-1.6-8.5-7.2-6.9-12.6c1.6-5.4,7.2-8.5,12.6-6.9C254.9,429,258,434.7,256.4,440.1z"/>
		<polygon class="st0" points="162.1,88.2 123.6,88.2 186.5,264.1 224.4,264.1 287.4,88.2 249.8,88.2 206.7,218.4 		"/>
		<path class="st0" d="M395.4,230c-5.8,4.8-14.4,7.3-25.9,7.3c-10.8,0-19.4-2.7-25.7-8.2c-6.4-5.4-10.6-14-12.7-25.6l-34.6,3.4
			c2.3,19.7,9.4,34.7,21.4,44.9c11.9,10.3,29,15.4,51.2,15.4c15.3,0,28-2.1,38.3-6.4s18.2-10.8,23.8-19.6s8.4-18.2,8.4-28.3
			c0-11.1-2.3-20.5-7-28c-4.7-7.6-11.2-13.5-19.4-17.9c-8.3-4.4-21.1-8.6-38.3-12.7s-28.2-8-32.6-11.8c-3.5-3-5.3-6.5-5.3-10.7
			c0-4.6,1.9-8.2,5.6-10.9c5.8-4.2,13.9-6.4,24.2-6.4c10,0,17.5,2,22.5,5.9c5,4,8.3,10.5,9.8,19.5l35.5-1.6
			c-0.6-16.2-6.4-29.1-17.6-38.8c-11.2-9.7-27.8-14.5-49.9-14.5c-13.5,0-25.1,2-34.6,6.1c-9.6,4.1-16.9,10-22,17.8
			c-5.1,7.8-7.6,16.2-7.6,25.1c0,13.9,5.4,25.7,16.2,35.4c7.7,6.9,21,12.7,40.1,17.4c14.8,3.7,24.3,6.2,28.4,7.7
			c6.1,2.2,10.3,4.7,12.8,7.6c2.4,2.9,3.7,6.5,3.7,10.6C404.1,219.5,401.2,225.2,395.4,230z"/>
	</g>
</g>
</svg>
