<svg xmlns="http://www.w3.org/2000/svg" width="26" height="20" viewBox="0 0 26 20">
    <path fill="#BFBFBF" d="M25.748 17.895l-2.235-1.66c.626-.055 1.186-.535 1.186-1.215V4.98c0-.996-1.182-1.578-2.047-1.008l-4.453 2.953v5.36l-1.3-.965V4.367c0-1.032-.87-1.868-1.942-1.868H5.032L1.847.132c-.284-.211-.69-.164-.914.11l-.796.984c-.22.273-.17.664.114.875l1.483 1.101 15.165 11.275 7.252 5.391c.284.211.69.164.914-.11l.796-.987c.224-.27.171-.665-.113-.876zm-24.45-2.262c0 1.032.87 1.868 1.943 1.868h11.716c.455 0 .87-.156 1.203-.41L1.299 6.043v9.59z"/>
</svg>
