<svg xmlns="http://www.w3.org/2000/svg" width="25" height="21" viewBox="0 0 25 21">
    <path fill="#F6C60E" d="M11.76.385L6.893 5.25H1.312C.587 5.25 0 5.837 0 6.563v7.875c0 .724.587 1.312 1.312 1.312h5.582l4.865 4.864c.822.822 2.24.245 2.24-.928V1.314C14 .14 12.58-.436 11.76.385zm5.736 5.91c-.633-.346-1.432-.117-1.783.517-.35.635-.118 1.433.517 1.784.706.388 1.145 1.118 1.145 1.904 0 .786-.44 1.516-1.145 1.904-.634.35-.866 1.148-.516 1.783.351.638 1.15.864 1.783.517 1.544-.85 2.503-2.461 2.503-4.205 0-1.743-.96-3.353-2.504-4.203zm5.253-3.018c-.569-.594-1.287-.203-1.603.888-.314 1.09-.106 2.461.465 3.064.635.666 1.029 1.92 1.029 3.27 0 1.351-.394 2.605-1.029 3.27-.57.603-.778 1.973-.464 3.064.316 1.096 1.035 1.484 1.603.888 1.388-1.46 2.25-4.227 2.25-7.222s-.862-5.76-2.25-7.222z"/>
</svg>
