<svg xmlns="http://www.w3.org/2000/svg" width="18" height="19" viewBox="0 0 18 19">
    <path fill="#BFBFBF" d="M10.08.825L5.908 4.963H1.125C.503 4.963 0 5.463 0 6.079v6.699c0 .616.503 1.116 1.125 1.116h4.784l4.17 4.138c.705.699 1.92.208 1.92-.79V1.615c0-.999-1.216-1.488-1.92-.79zm5.774 5.027c-.543-.294-1.228-.1-1.528.44-.3.54-.102 1.219.443 1.517.605.33.98.95.98 1.62 0 .668-.375 1.289-.98 1.619-.544.298-.742.977-.443 1.517.301.542.987.735 1.529.44C17.178 12.28 18 10.91 18 9.427s-.822-2.852-2.146-3.576z"/>
</svg>
