<svg xmlns="http://www.w3.org/2000/svg" width="25" height="18" viewBox="0 0 25 18">
    <path fill="#BFBFBF" d="M10.228.33L5.996 4.5H1.142C.51 4.5 0 5.003 0 5.625v6.75c0 .621.51 1.125 1.142 1.125h4.854l4.232 4.17c.715.704 1.948.209 1.948-.796V1.126c0-1.006-1.234-1.5-1.948-.796zM21.958 9l2.17-2.14c.3-.295.3-.774 0-1.07l-1.085-1.069c-.3-.295-.786-.295-1.086 0l-2.17 2.14-2.171-2.14c-.3-.295-.786-.295-1.086 0l-1.085 1.07c-.3.295-.3.774 0 1.07L17.615 9l-2.17 2.139c-.3.295-.3.774 0 1.07l1.086 1.07c.3.295.786.295 1.085 0l2.17-2.14 2.171 2.14c.3.295.786.295 1.086 0l1.085-1.07c.3-.295.3-.774 0-1.07L21.958 9z"/>
</svg>
